<svg version="1.2" xmlns="http://www.w3.org/2000/svg" viewBox="0 0 33 32" width="175" height="170">
	<title>hop-logo-black</title>
	<defs>
		<linearGradient id="g1" x1="32.8" y1="28.6" x2="-5.5" y2="-18.4" gradientUnits="userSpaceOnUse">
			<stop offset=".1" stop-color="#b32eff"/>
			<stop offset=".4" stop-color="#ce60d3"/>
			<stop offset=".6" stop-color="#e185b3"/>
			<stop offset=".8" stop-color="#ee9c9f"/>
			<stop offset="1" stop-color="#f2a498"/>
		</linearGradient>
		<linearGradient id="g2" x1="-1.6" y1="2.4" x2="36.7" y2="49.4" gradientUnits="userSpaceOnUse">
			<stop offset=".1" stop-color="#b32eff"/>
			<stop offset=".4" stop-color="#ce60d3"/>
			<stop offset=".6" stop-color="#e185b3"/>
			<stop offset=".8" stop-color="#ee9c9f"/>
			<stop offset="1" stop-color="#f2a498"/>
		</linearGradient>
	</defs>
	<style>
		.s0 { fill: #0b091e } 
		.s1 { fill: url(#g1) } 
		.s2 { fill: url(#g2) } 
	</style>
	<path id="Layer" class="s0" d="m41.9 24.2q-0.4 0.1-0.9 0.1-1 0-1.4-0.4-0.4-0.3-0.4-1.2v-14.7q0.2 0 0.6-0.1 0.5-0.1 0.9-0.1 1 0 1.5 0.4 0.4 0.3 0.4 1.2v5.3h6.6v-6.7q0.2 0 0.7-0.1 0.4-0.1 0.9-0.1 1 0 1.4 0.4 0.5 0.3 0.5 1.3v14.6q-0.3 0-0.7 0.1-0.5 0.1-1 0.1-1 0-1.4-0.4-0.4-0.3-0.4-1.2v-5.3h-6.6v6.7q-0.2 0.1-0.7 0.1z"/>
	<path id="Layer" fill-rule="evenodd" class="s0" d="m67.7 17.8q0 1.6-0.5 2.8-0.4 1.2-1.3 2.1-0.9 0.9-2.1 1.4-1.2 0.4-2.6 0.4-1.5 0-2.7-0.4-1.2-0.5-2-1.4-0.9-0.9-1.4-2.1-0.4-1.2-0.4-2.8 0-1.5 0.4-2.7 0.5-1.2 1.4-2.1 0.9-0.9 2-1.3 1.2-0.5 2.7-0.5 1.4 0 2.6 0.5 1.2 0.4 2.1 1.3 0.8 0.9 1.3 2.1 0.5 1.2 0.5 2.7zm-6.5-4q-1.5 0-2.3 1.1-0.8 1-0.8 2.9 0 2 0.8 3 0.8 1 2.3 1 1.4 0 2.2-1 0.8-1.1 0.8-3 0-1.9-0.8-2.9-0.8-1.1-2.2-1.1z"/>
	<path id="Layer" fill-rule="evenodd" class="s0" d="m75.8 24.5q-0.8 0-1.5-0.2-0.6-0.1-1.1-0.3v4.9q-0.3 0-0.7 0.1-0.4 0.1-0.9 0.1-0.9 0-1.3-0.4-0.5-0.3-0.5-1.2v-13.4q0-0.7 0.3-1.1 0.2-0.4 0.8-0.7 0.7-0.5 1.9-0.8 1.1-0.3 2.5-0.3 1.4 0 2.7 0.4 1.2 0.3 2.2 1.2 0.9 0.8 1.4 2 0.5 1.3 0.5 3 0 1.7-0.5 2.9-0.5 1.3-1.3 2.1-0.9 0.9-2 1.3-1.2 0.4-2.5 0.4zm-0.5-2.7q1.5 0 2.4-1 0.9-0.9 0.9-3 0-2.2-0.9-3.1-0.9-0.9-2.4-0.9-0.6 0-1.2 0.2-0.5 0.2-1 0.4v6.8q0.5 0.3 1 0.5 0.6 0.1 1.2 0.1z"/>
	<path id="Layer" class="s1" d="m31.2 11.7q0 0.8-0.3 1.6c-0.3 0.6-0.9 1.1-1.6 1.3-0.9 0.2-1.6-0.2-2.4-0.5q0 0 0 0 0 0 0 0 0 0 0 0 0 0 0 0 1.1 1.9 1.8 3.9c0.3 0.6 0 1.3-0.7 1.6q-0.4 0.1-0.8 0-0.4-0.2-0.6-0.6c0 0-2.4-3.9-4.3-5.7-1.7-1.6-3.5-3-5.6-4-2-1-4.2-1.6-6.4-1.8-2.3-0.2-4.5 0-6.8 0.4-1.1 0.1-2.2-0.5-2.5-1.5-0.3-1.2 0.3-2.2 1.5-2.6 10.8-3.6 19.9 3.2 20.5 3.6q0 0 0 0 0 0 0 0 0 0 0 0 0 0 0 0c-1.5-2.1-2.1-3.9-2.2-5.5 0-1.8 2.3-2.6 3.3-1.1l6.5 9.5q0.5 0.6 0.6 1.4z"/>
	<path id="Layer" class="s2" d="m0 19.3q-0.1-0.8 0.3-1.5c0.2-0.7 0.9-1.2 1.6-1.4 0.9-0.2 1.6 0.2 2.4 0.5q0 0 0 0 0 0 0 0 0 0 0 0 0 0 0 0-1.1-1.9-1.8-3.8c-0.3-0.7 0-1.4 0.7-1.7q0.4-0.1 0.8 0.1 0.4 0.1 0.6 0.5c0 0 2.4 3.9 4.3 5.7 1.7 1.6 3.5 3 5.6 4 2 1 4.2 1.6 6.4 1.8 2.3 0.2 4.5 0 6.8-0.3 1.1-0.2 2.2 0.4 2.5 1.5 0.3 1.1-0.3 2.1-1.5 2.5-10.8 3.7-19.9-3.2-20.5-3.6q0 0 0 0 0 0 0 0 0 0 0 0 0 0 0 0c1.4 2.1 2.1 3.9 2.1 5.5 0.1 1.8-2.2 2.6-3.2 1.1l-6.5-9.4q-0.5-0.7-0.6-1.5z"/>
</svg>