<svg width="131" height="131" viewBox="0 0 131 131" fill="none" xmlns="http://www.w3.org/2000/svg">
<path d="M131 65.5C131 101.675 101.675 131 65.5 131C29.3253 131 0 101.675 0 65.5C0 29.3253 29.3253 0 65.5 0C101.675 0 131 29.3253 131 65.5Z" fill="#D9D9D9"/>
<path d="M76.1074 60.8906C75.0007 61.6719 73.373 62.9414 71.2246 64.6992C69.9876 65.7409 68.9785 67.2057 68.1973 69.0938C68.0671 69.3542 67.5137 71.0469 66.5371 74.1719C66.4069 74.5625 66.472 76.1901 66.7324 79.0547H59.7988C59.4733 76.3854 59.3105 74.2695 59.3105 72.707C59.3105 69.582 59.9941 66.8802 61.3613 64.6016C62.4681 62.6484 64.3887 60.5326 67.123 58.2539C69.8574 55.9753 71.5827 54.3802 72.2988 53.4688C74.1868 51.3203 75.1309 49.2044 75.1309 47.1211C75.1309 44.1914 74.1868 41.7826 72.2988 39.8945C70.4759 38.0065 68.0996 37.0625 65.1699 37.0625C58.9199 37.0625 54.6556 40.5456 52.377 47.5117L45.6387 43.9961C49.4147 34.6211 55.8275 29.9336 64.877 29.9336C69.9551 29.9336 74.2194 31.5612 77.6699 34.8164C81.1855 38.0716 82.9434 42.2057 82.9434 47.2188C82.9434 52.6224 80.6647 57.1797 76.1074 60.8906ZM63.7051 99.2695C62.0775 99.2695 60.7428 98.7487 59.7012 97.707C58.6595 96.6003 58.1387 95.2331 58.1387 93.6055C58.1387 91.9779 58.6595 90.6107 59.7012 89.5039C60.8079 88.3971 62.1426 87.8438 63.7051 87.8438C65.3978 87.8438 66.7975 88.3971 67.9043 89.5039C69.0762 90.5456 69.6621 91.9128 69.6621 93.6055C69.6621 95.2982 69.0762 96.6654 67.9043 97.707C66.7975 98.7487 65.3978 99.2695 63.7051 99.2695Z" fill="black"/>
</svg>
